<?xml version="1.0" encoding="UTF-8"?>
<svg xmlns="http://www.w3.org/2000/svg" xmlns:xlink="http://www.w3.org/1999/xlink" width="100px" height="100px" viewBox="0 0 100 100" version="1.1">
<g id="surface1">
<path style=" stroke:none;fill-rule:nonzero;fill:rgb(0%,0%,0%);fill-opacity:1;" d="M 42.96875 -0.0742188 C 43.195312 -0.0742188 43.195312 -0.0742188 43.421875 -0.0742188 C 51.101562 -0.046875 57.699219 2.988281 63.199219 8.3125 C 63.945312 9.066406 64.59375 9.898438 65.234375 10.742188 C 65.339844 10.882812 65.449219 11.023438 65.558594 11.167969 C 66.210938 12.046875 66.210938 12.046875 66.210938 12.5 C 66.417969 12.480469 66.621094 12.460938 66.835938 12.445312 C 71.527344 12.0625 75.652344 13.164062 79.296875 16.210938 C 79.425781 16.3125 79.558594 16.414062 79.691406 16.519531 C 82.703125 18.964844 84.59375 22.914062 85.050781 26.722656 C 85.097656 27.320312 85.136719 27.917969 85.15625 28.515625 C 85.386719 28.5 85.617188 28.484375 85.851562 28.46875 C 89.054688 28.476562 92.066406 30.070312 94.335938 32.226562 C 97.027344 35.015625 98.152344 38.269531 98.128906 42.085938 C 98.027344 45.675781 96.527344 48.890625 93.945312 51.367188 C 90.910156 53.96875 87.492188 54.78125 83.570312 54.761719 C 83.28125 54.761719 82.992188 54.761719 82.707031 54.765625 C 81.921875 54.765625 81.140625 54.765625 80.355469 54.765625 C 79.507812 54.761719 78.664062 54.765625 77.816406 54.765625 C 76.15625 54.769531 74.5 54.769531 72.84375 54.765625 C 71.496094 54.765625 70.148438 54.765625 68.800781 54.765625 C 68.511719 54.765625 68.511719 54.765625 68.21875 54.765625 C 67.828125 54.765625 67.4375 54.765625 67.046875 54.765625 C 63.390625 54.769531 59.730469 54.765625 56.074219 54.761719 C 52.941406 54.761719 49.804688 54.761719 46.671875 54.765625 C 43.027344 54.765625 39.382812 54.769531 35.738281 54.765625 C 35.347656 54.765625 34.960938 54.765625 34.570312 54.765625 C 34.378906 54.765625 34.1875 54.765625 33.992188 54.765625 C 32.644531 54.765625 31.300781 54.765625 29.957031 54.765625 C 28.316406 54.769531 26.675781 54.769531 25.035156 54.765625 C 24.199219 54.765625 23.363281 54.761719 22.527344 54.765625 C 21.761719 54.765625 20.992188 54.765625 20.226562 54.761719 C 19.949219 54.761719 19.675781 54.761719 19.398438 54.765625 C 14.3125 54.789062 9.894531 53.15625 6.214844 49.585938 C 2.949219 46.113281 1.769531 41.886719 1.882812 37.234375 C 1.953125 35.75 2.257812 34.417969 2.734375 33.007812 C 2.835938 32.699219 2.835938 32.699219 2.941406 32.386719 C 4.398438 28.503906 7.613281 25.285156 11.34375 23.546875 C 12.699219 22.996094 13.996094 22.691406 15.449219 22.511719 C 16.089844 22.304688 16.089844 22.304688 16.355469 21.566406 C 16.441406 21.28125 16.523438 20.992188 16.601562 20.703125 C 16.6875 20.433594 16.773438 20.167969 16.859375 19.898438 C 16.902344 19.761719 16.945312 19.625 16.988281 19.484375 C 19.140625 12.707031 23.441406 6.535156 29.761719 3.09375 C 31.582031 2.15625 33.414062 1.375 35.386719 0.816406 C 35.523438 0.78125 35.65625 0.742188 35.796875 0.703125 C 38.164062 0.0742188 40.527344 -0.078125 42.96875 -0.0742188 Z M 27.316406 10.5625 C 23.382812 14.527344 21.175781 19.960938 20.125 25.371094 C 19.804688 26.019531 19.382812 26.234375 18.75 26.5625 C 18.210938 26.652344 17.71875 26.714844 17.175781 26.746094 C 14.507812 26.988281 11.640625 28.085938 9.765625 30.078125 C 7.296875 33.042969 6.175781 35.949219 6.40625 39.808594 C 6.679688 42.691406 8.222656 45.347656 10.351562 47.265625 C 13.292969 49.53125 16.167969 50.257812 19.835938 50.246094 C 20.121094 50.25 20.40625 50.25 20.691406 50.25 C 21.46875 50.253906 22.246094 50.253906 23.027344 50.253906 C 23.867188 50.253906 24.710938 50.253906 25.550781 50.257812 C 27.199219 50.257812 28.847656 50.261719 30.496094 50.261719 C 31.835938 50.261719 33.175781 50.261719 34.515625 50.261719 C 38.316406 50.265625 42.117188 50.269531 45.917969 50.269531 C 46.226562 50.269531 46.226562 50.269531 46.539062 50.269531 C 46.847656 50.269531 46.847656 50.269531 47.160156 50.269531 C 50.484375 50.265625 53.804688 50.269531 57.128906 50.277344 C 60.542969 50.28125 63.957031 50.285156 67.371094 50.285156 C 69.289062 50.285156 71.203125 50.285156 73.121094 50.289062 C 74.75 50.292969 76.382812 50.292969 78.011719 50.292969 C 78.84375 50.289062 79.675781 50.289062 80.507812 50.292969 C 81.269531 50.296875 82.03125 50.296875 82.792969 50.292969 C 83.070312 50.292969 83.34375 50.292969 83.617188 50.296875 C 86.1875 50.3125 88.378906 49.84375 90.429688 48.242188 C 90.59375 48.121094 90.753906 48 90.921875 47.875 C 92.460938 46.550781 93.433594 44.40625 93.628906 42.410156 C 93.746094 39.75 92.882812 37.835938 91.359375 35.71875 C 89.960938 34.257812 87.898438 33.050781 85.839844 32.996094 C 85.667969 33 85.5 33.003906 85.328125 33.007812 C 85.140625 33.011719 84.953125 33.015625 84.761719 33.019531 C 84.375 33.027344 83.984375 33.039062 83.597656 33.050781 C 81.78125 33.078125 81.78125 33.078125 81.054688 32.421875 C 80.714844 31.859375 80.621094 31.472656 80.652344 30.820312 C 80.660156 30.660156 80.664062 30.503906 80.667969 30.339844 C 80.675781 30.175781 80.683594 30.007812 80.6875 29.835938 C 80.746094 26.355469 79.75 23.296875 77.449219 20.625 C 75.101562 18.21875 71.953125 16.800781 68.566406 16.746094 C 68.070312 16.765625 67.609375 16.820312 67.113281 16.894531 C 66.507812 16.976562 65.917969 17.039062 65.308594 17.066406 C 65.132812 17.074219 64.957031 17.085938 64.773438 17.09375 C 63.863281 16.914062 63.433594 16.238281 62.925781 15.503906 C 62.8125 15.320312 62.703125 15.140625 62.585938 14.953125 C 60.53125 11.808594 57.9375 9.308594 54.6875 7.421875 C 54.566406 7.351562 54.449219 7.285156 54.324219 7.210938 C 45.738281 2.339844 34.378906 3.667969 27.316406 10.5625 Z M 27.316406 10.5625 "/>
<path style=" stroke:none;fill-rule:nonzero;fill:rgb(0%,0%,0%);fill-opacity:1;" d="M 58.453125 60.3125 C 58.703125 60.3125 58.957031 60.308594 59.21875 60.304688 C 59.496094 60.300781 59.773438 60.300781 60.046875 60.296875 C 60.1875 60.296875 60.328125 60.296875 60.472656 60.296875 C 61.210938 60.289062 61.953125 60.285156 62.691406 60.28125 C 63.304688 60.28125 63.914062 60.273438 64.523438 60.265625 C 65.261719 60.257812 66 60.253906 66.742188 60.25 C 67.023438 60.25 67.300781 60.246094 67.582031 60.242188 C 70.222656 60.199219 70.222656 60.199219 71.394531 61.050781 C 72.167969 61.808594 72.613281 62.777344 72.679688 63.855469 C 72.679688 63.988281 72.679688 64.121094 72.679688 64.261719 C 72.679688 64.492188 72.679688 64.492188 72.679688 64.726562 C 72.679688 64.976562 72.679688 64.976562 72.679688 65.234375 C 72.679688 65.410156 72.679688 65.585938 72.679688 65.769531 C 72.679688 66.355469 72.675781 66.941406 72.675781 67.527344 C 72.675781 67.933594 72.675781 68.339844 72.675781 68.746094 C 72.671875 69.8125 72.671875 70.882812 72.667969 71.949219 C 72.667969 73.039062 72.667969 74.132812 72.664062 75.222656 C 72.664062 77.363281 72.660156 79.5 72.65625 81.640625 C 72.929688 81.722656 72.929688 81.722656 73.210938 81.808594 C 74.113281 82.132812 74.566406 82.703125 75.144531 83.445312 C 75.640625 84.535156 75.722656 85.53125 75.328125 86.667969 C 74.847656 87.734375 74.144531 88.613281 73.417969 89.519531 C 72.792969 90.296875 72.210938 91.105469 71.628906 91.917969 C 70.296875 93.777344 68.945312 95.625 67.578125 97.460938 C 67.496094 97.574219 67.410156 97.6875 67.324219 97.804688 C 65.910156 99.710938 65.910156 99.710938 64.84375 100 C 63.582031 100.117188 62.378906 100.203125 61.328125 99.414062 C 60.175781 98.308594 59.277344 97.003906 58.363281 95.703125 C 57.75 94.828125 57.117188 93.972656 56.480469 93.113281 C 56.132812 92.640625 55.78125 92.164062 55.433594 91.691406 C 55.195312 91.371094 54.957031 91.046875 54.71875 90.726562 C 54.375 90.257812 54.03125 89.789062 53.6875 89.320312 C 53.53125 89.109375 53.53125 89.109375 53.371094 88.894531 C 52.449219 87.628906 51.597656 86.425781 51.683594 84.8125 C 51.863281 83.769531 52.328125 82.945312 53.113281 82.238281 C 53.691406 81.847656 54.019531 81.75 54.6875 81.640625 C 54.683594 81.410156 54.683594 81.179688 54.679688 80.9375 C 54.660156 78.753906 54.644531 76.570312 54.636719 74.386719 C 54.632812 73.265625 54.625 72.140625 54.613281 71.019531 C 54.601562 69.933594 54.597656 68.851562 54.59375 67.765625 C 54.59375 67.355469 54.589844 66.941406 54.585938 66.527344 C 54.578125 65.949219 54.578125 65.367188 54.578125 64.789062 C 54.574219 64.621094 54.570312 64.449219 54.566406 64.273438 C 54.574219 63.0625 54.902344 62.269531 55.664062 61.328125 C 56.578125 60.480469 57.226562 60.328125 58.453125 60.3125 Z M 59.179688 64.84375 C 59.171875 66.136719 59.164062 67.429688 59.15625 68.761719 C 59.152344 69.582031 59.144531 70.402344 59.140625 71.222656 C 59.128906 72.527344 59.117188 73.828125 59.113281 75.128906 C 59.105469 76.179688 59.097656 77.230469 59.089844 78.277344 C 59.085938 78.679688 59.082031 79.078125 59.082031 79.480469 C 59.082031 80.039062 59.074219 80.601562 59.070312 81.164062 C 59.070312 81.328125 59.070312 81.492188 59.070312 81.660156 C 59.050781 82.882812 58.890625 84.066406 58 84.980469 C 57.613281 85.234375 57.222656 85.488281 56.835938 85.742188 C 57.613281 86.933594 58.429688 88.089844 59.277344 89.234375 C 59.515625 89.554688 59.753906 89.878906 59.992188 90.199219 C 60.175781 90.445312 60.175781 90.445312 60.363281 90.699219 C 61.003906 91.5625 61.640625 92.429688 62.28125 93.296875 C 62.511719 93.613281 62.742188 93.925781 62.972656 94.242188 C 63.140625 94.46875 63.308594 94.695312 63.476562 94.921875 C 66.144531 92.34375 68.210938 88.980469 70.3125 85.9375 C 70.167969 85.796875 70.023438 85.65625 69.871094 85.511719 C 68.605469 84.214844 68.332031 83.421875 68.320312 81.628906 C 68.316406 81.449219 68.316406 81.265625 68.3125 81.078125 C 68.308594 80.480469 68.300781 79.882812 68.296875 79.28125 C 68.292969 78.867188 68.289062 78.453125 68.285156 78.035156 C 68.273438 76.945312 68.265625 75.851562 68.253906 74.757812 C 68.242188 73.445312 68.230469 72.132812 68.21875 70.824219 C 68.199219 68.828125 68.183594 66.835938 68.164062 64.84375 C 65.199219 64.84375 62.234375 64.84375 59.179688 64.84375 Z M 59.179688 64.84375 "/>
<path style=" stroke:none;fill-rule:nonzero;fill:rgb(19.607843%,80.000001%,80.000001%);fill-opacity:1;" d="M 38.148438 60.546875 C 39.421875 61.496094 40.339844 62.871094 41.246094 64.160156 C 42.066406 65.308594 42.898438 66.449219 43.75 67.578125 C 44.605469 68.710938 45.453125 69.851562 46.289062 70.996094 C 46.394531 71.136719 46.5 71.28125 46.609375 71.429688 C 47.535156 72.703125 48.402344 73.914062 48.316406 75.539062 C 48.136719 76.582031 47.671875 77.40625 46.886719 78.113281 C 46.308594 78.503906 45.980469 78.601562 45.3125 78.710938 C 45.3125 78.941406 45.316406 79.175781 45.316406 79.414062 C 45.332031 81.601562 45.34375 83.789062 45.351562 85.972656 C 45.355469 87.097656 45.363281 88.222656 45.371094 89.347656 C 45.378906 90.433594 45.382812 91.515625 45.386719 92.601562 C 45.386719 93.015625 45.390625 93.429688 45.394531 93.84375 C 45.402344 94.425781 45.402344 95.003906 45.402344 95.585938 C 45.402344 95.753906 45.40625 95.925781 45.410156 96.101562 C 45.402344 97.378906 45.101562 98.207031 44.21875 99.167969 C 43.296875 99.882812 42.699219 100.023438 41.546875 100.039062 C 41.296875 100.039062 41.042969 100.042969 40.78125 100.046875 C 40.503906 100.050781 40.226562 100.050781 39.953125 100.054688 C 39.8125 100.054688 39.671875 100.054688 39.527344 100.054688 C 38.789062 100.0625 38.046875 100.066406 37.308594 100.070312 C 36.695312 100.070312 36.085938 100.078125 35.476562 100.085938 C 34.738281 100.09375 34 100.097656 33.257812 100.101562 C 32.976562 100.101562 32.699219 100.105469 32.417969 100.109375 C 29.78125 100.152344 29.78125 100.152344 28.605469 99.300781 C 27.769531 98.480469 27.355469 97.464844 27.320312 96.304688 C 27.320312 95.976562 27.320312 95.648438 27.320312 95.320312 C 27.320312 95.050781 27.320312 95.050781 27.320312 94.777344 C 27.320312 94.183594 27.324219 93.589844 27.324219 92.996094 C 27.324219 92.585938 27.324219 92.175781 27.324219 91.765625 C 27.328125 90.683594 27.328125 89.601562 27.332031 88.519531 C 27.332031 87.414062 27.332031 86.3125 27.335938 85.207031 C 27.335938 83.042969 27.339844 80.875 27.34375 78.710938 C 27.160156 78.652344 26.980469 78.597656 26.789062 78.535156 C 25.886719 78.222656 25.375 77.816406 24.851562 77.015625 C 24.371094 75.734375 24.273438 74.769531 24.792969 73.46875 C 25.179688 72.683594 25.710938 72.007812 26.246094 71.3125 C 26.492188 70.984375 26.742188 70.65625 26.988281 70.328125 C 27.113281 70.160156 27.238281 69.996094 27.367188 69.824219 C 27.921875 69.082031 28.464844 68.332031 29.003906 67.578125 C 29.910156 66.320312 30.820312 65.066406 31.738281 63.820312 C 31.851562 63.664062 31.964844 63.511719 32.078125 63.351562 C 33.734375 61.105469 35.136719 59.636719 38.148438 60.546875 Z M 36.328125 65.429688 C 34.992188 67.035156 33.785156 68.722656 32.570312 70.417969 C 31.980469 71.238281 31.390625 72.058594 30.796875 72.875 C 30.582031 73.171875 30.367188 73.472656 30.152344 73.769531 C 30 73.984375 29.84375 74.199219 29.6875 74.414062 C 29.914062 74.640625 29.914062 74.640625 30.148438 74.871094 C 31.035156 75.765625 31.660156 76.441406 31.671875 77.734375 C 31.671875 77.894531 31.675781 78.050781 31.675781 78.214844 C 31.679688 78.390625 31.679688 78.5625 31.679688 78.742188 C 31.683594 78.921875 31.683594 79.105469 31.6875 79.296875 C 31.691406 79.902344 31.699219 80.507812 31.703125 81.113281 C 31.707031 81.53125 31.710938 81.949219 31.714844 82.371094 C 31.726562 83.476562 31.734375 84.582031 31.746094 85.683594 C 31.757812 87.011719 31.769531 88.335938 31.78125 89.660156 C 31.800781 91.675781 31.816406 93.6875 31.835938 95.703125 C 34.800781 95.703125 37.765625 95.703125 40.820312 95.703125 C 40.828125 94.394531 40.835938 93.089844 40.84375 91.742188 C 40.847656 90.914062 40.855469 90.082031 40.859375 89.253906 C 40.871094 87.9375 40.882812 86.621094 40.886719 85.304688 C 40.894531 84.246094 40.902344 83.183594 40.910156 82.121094 C 40.914062 81.71875 40.917969 81.3125 40.917969 80.910156 C 40.917969 80.339844 40.925781 79.773438 40.929688 79.207031 C 40.929688 79.039062 40.929688 78.875 40.929688 78.703125 C 40.949219 77.476562 41.105469 76.289062 42 75.371094 C 42.140625 75.28125 42.277344 75.191406 42.417969 75.097656 C 42.558594 75.003906 42.699219 74.910156 42.84375 74.8125 C 42.949219 74.746094 43.054688 74.679688 43.164062 74.609375 C 42.371094 73.359375 41.496094 72.179688 40.605469 71 C 39.703125 69.804688 38.828125 68.59375 37.960938 67.371094 C 37.460938 66.667969 36.96875 66.015625 36.328125 65.429688 Z M 36.328125 65.429688 "/>
<path style=" stroke:none;fill-rule:nonzero;fill:rgb(0%,0%,0%);fill-opacity:1;" d="M 65.429688 31.054688 C 65.59375 31.1875 65.753906 31.324219 65.921875 31.460938 C 67.324219 32.660156 67.324219 32.660156 67.457031 33.449219 C 67.476562 34.273438 67.492188 34.964844 67.003906 35.65625 C 66.332031 36.191406 65.929688 36.300781 65.09375 36.382812 C 64.152344 36.265625 63.523438 35.632812 62.84375 35.015625 C 60.636719 33.03125 58.121094 31.699219 55.273438 30.859375 C 55.074219 30.796875 54.878906 30.734375 54.671875 30.671875 C 49.757812 29.359375 44.636719 30.371094 40.246094 32.730469 C 39.429688 33.21875 38.699219 33.753906 37.996094 34.390625 C 37.816406 34.546875 37.816406 34.546875 37.636719 34.710938 C 37.40625 34.921875 37.179688 35.132812 36.953125 35.351562 C 36.191406 36.054688 35.605469 36.269531 34.570312 36.347656 C 33.976562 36.320312 33.652344 36.125 33.203125 35.742188 C 32.683594 35.15625 32.53125 34.777344 32.53125 33.996094 C 32.527344 33.832031 32.523438 33.671875 32.519531 33.503906 C 32.875 31.6875 35.519531 30.226562 36.960938 29.25 C 39.171875 27.847656 41.425781 26.878906 43.945312 26.171875 C 44.179688 26.105469 44.414062 26.039062 44.65625 25.96875 C 52.015625 24.253906 59.695312 26.296875 65.429688 31.054688 Z M 65.429688 31.054688 "/>
<path style=" stroke:none;fill-rule:nonzero;fill:rgb(0%,0%,0%);fill-opacity:1;" d="M 58.902344 38.015625 C 60.644531 39.441406 60.644531 39.441406 60.828125 40.601562 C 60.808594 41.332031 60.636719 41.820312 60.15625 42.382812 C 59.605469 42.898438 59.152344 43.109375 58.398438 43.164062 C 57.464844 42.925781 56.867188 42.539062 56.128906 41.929688 C 53.707031 40.054688 51.230469 39.601562 48.242188 39.84375 C 46.347656 40.214844 44.632812 41.148438 43.210938 42.445312 C 42.625 42.964844 42.21875 43.179688 41.40625 43.164062 C 40.617188 42.894531 39.984375 42.644531 39.453125 41.992188 C 39.332031 41.585938 39.332031 41.585938 39.28125 41.136719 C 39.261719 40.992188 39.242188 40.84375 39.222656 40.695312 C 39.316406 39.484375 40.34375 38.703125 41.199219 37.957031 C 46.378906 33.988281 53.738281 34.070312 58.902344 38.015625 Z M 58.902344 38.015625 "/>
</g>
</svg>
